#N canvas 257 23 1010 801 10;
#X obj 351 445 vline~;
#X obj 336 482 *~;
#X obj 503 445 vline~;
#X obj 488 482 *~;
#X obj 488 514 dac~ 2;
#X msg 503 409 0 0 \, \$1 \$2 \$3 \, 0 \$2 \$4;
#X obj 319 445 osc~;
#X obj 351 377 pack f f f;
#X obj 471 445 osc~;
#X obj 503 377 pack f f f f;
#X obj 277 235 bng 15 250 50 0 empty empty empty 17 7 0 10 -262144
-1 -1;
#X floatatom 224 376 5 0 0 0 - - -;
#X obj 70 484 pddp/dsp;
#X floatatom 224 335 5 0 0 0 - - -;
#X text 696 229 Missile Charge;
#X obj 662 286 bng 15 250 50 0 empty empty empty 17 7 0 10 -262144
-1 -1;
#X text 827 229 Stop missile charge;
#X obj 351 308 unpack f f f f f f;
#X text 352 196 Shooting missile;
#X floatatom 224 355 5 0 0 0 - - -;
#X text 156 334 INTENSITY;
#X text 157 355 RAMP;
#X text 157 376 FREQUENCY;
#X floatatom 224 397 5 0 0 0 - - -;
#X text 157 396 SOA;
#X msg 829 288 0 10;
#X obj 351 216 netreceive 40001 1;
#X obj 695 252 netreceive 40002 1;
#X obj 829 252 netreceive 40003 1;
#X obj 336 514 dac~ 1;
#X obj 347 797 vline~;
#X obj 332 834 *~;
#X obj 499 797 vline~;
#X obj 484 834 *~;
#X msg 347 759 0 0 \, \$1 \$2 0 \, 0 \$2 \$3;
#X msg 499 761 0 0 \, \$1 \$2 \$3 \, 0 \$2 \$4;
#X obj 315 797 osc~;
#X obj 347 729 pack f f f;
#X obj 467 797 osc~;
#X obj 499 729 pack f f f f;
#X obj 273 587 bng 15 250 50 0 empty empty empty 17 7 0 10 -262144
-1 -1;
#X floatatom 220 728 5 0 0 0 - - -;
#X floatatom 220 687 5 0 0 0 - - -;
#X text 692 581 Missile Charge;
#X obj 658 638 bng 15 250 50 0 empty empty empty 17 7 0 10 -262144
-1 -1;
#X text 823 581 Stop missile charge;
#X obj 347 660 unpack f f f f f f;
#X text 348 548 Shooting missile;
#X floatatom 220 707 5 0 0 0 - - -;
#X text 152 686 INTENSITY;
#X text 153 707 RAMP;
#X text 153 728 FREQUENCY;
#X floatatom 220 749 5 0 0 0 - - -;
#X text 153 748 SOA;
#X msg 825 640 0 10;
#X obj 484 866 dac~ 1;
#X obj 332 866 dac~ 2;
#X obj 825 604 netreceive 50003 1;
#X obj 691 604 netreceive 50002 1;
#X obj 347 568 netreceive 50001 1;
#X obj 332 1061 vline~;
#X obj 317 1098 *~;
#X obj 300 1061 osc~;
#X obj 317 1130 dac~ 1;
#X text 298 901 Blast at collision;
#X obj 300 924 netreceive 60001 1;
#X obj 245 1017 bng 15 250 50 0 empty empty empty 17 7 0 10 -262144
-1 -1;
#X obj 585 1061 vline~;
#X obj 570 1098 *~;
#X obj 553 1061 osc~;
#X obj 498 1017 bng 15 250 50 0 empty empty empty 17 7 0 10 -262144
-1 -1;
#X obj 553 924 netreceive 60002 1;
#X obj 570 1130 dac~ 2;
#X msg 351 407 0 0 \, \$1 \$2 0 \, 0 \$2 \$3;
#X obj 887 289 bng 15 250 50 0 empty empty empty 17 7 0 10 -262144
-1 -1;
#X obj 880 641 bng 15 250 50 0 empty empty empty 17 7 0 10 -262144
-1 -1;
#X msg 454 1063 0 10;
#X obj 454 1094 vline~;
#X obj 422 1094 osc~;
#X obj 438 1121 *~;
#X obj 403 1144 dac~ 2;
#X obj 465 1144 dac~ 1;
#X floatatom 795 372 5 0 0 0 - - -;
#X obj 782 341 unpack f f f f;
#X obj 713 478 *~;
#X obj 696 441 osc~;
#X obj 713 510 dac~ 1;
#X obj 737 442 vline~;
#X floatatom 773 733 5 0 0 0 - - -;
#X obj 760 702 unpack f f f f;
#X obj 691 839 *~;
#X obj 674 802 osc~;
#X obj 715 803 vline~;
#X obj 691 871 dac~ 2;
#X msg 339 1019 0 \, \$1 5 0 \, 0 5 200;
#X msg 592 1019 0 \, \$1 5 0 \, 0 5 200;
#X msg 737 412 \$1 2;
#X msg 715 773 \$1 2;
#X obj 300 966 unpack f f f f;
#X obj 552 970 unpack f f f f;
#X connect 0 0 1 1;
#X connect 1 0 29 0;
#X connect 2 0 3 1;
#X connect 3 0 4 0;
#X connect 5 0 2 0;
#X connect 6 0 1 0;
#X connect 7 0 73 0;
#X connect 8 0 3 0;
#X connect 9 0 5 0;
#X connect 17 0 7 0;
#X connect 17 0 13 0;
#X connect 17 0 9 0;
#X connect 17 1 7 1;
#X connect 17 1 9 1;
#X connect 17 1 19 0;
#X connect 17 2 7 2;
#X connect 17 3 11 0;
#X connect 17 3 8 0;
#X connect 17 3 6 0;
#X connect 17 4 9 2;
#X connect 17 4 23 0;
#X connect 17 5 9 3;
#X connect 25 0 2 0;
#X connect 25 0 0 0;
#X connect 25 0 87 0;
#X connect 26 0 10 0;
#X connect 26 0 25 0;
#X connect 26 0 17 0;
#X connect 27 0 15 0;
#X connect 27 0 83 0;
#X connect 28 0 25 0;
#X connect 28 0 74 0;
#X connect 30 0 31 1;
#X connect 31 0 56 0;
#X connect 32 0 33 1;
#X connect 33 0 55 0;
#X connect 34 0 30 0;
#X connect 35 0 32 0;
#X connect 36 0 31 0;
#X connect 37 0 34 0;
#X connect 38 0 33 0;
#X connect 39 0 35 0;
#X connect 46 0 37 0;
#X connect 46 0 42 0;
#X connect 46 0 39 0;
#X connect 46 1 37 1;
#X connect 46 1 39 1;
#X connect 46 1 48 0;
#X connect 46 2 37 2;
#X connect 46 3 41 0;
#X connect 46 3 38 0;
#X connect 46 3 36 0;
#X connect 46 4 39 2;
#X connect 46 4 52 0;
#X connect 46 5 39 3;
#X connect 54 0 32 0;
#X connect 54 0 30 0;
#X connect 54 0 92 0;
#X connect 57 0 54 0;
#X connect 57 0 75 0;
#X connect 58 0 44 0;
#X connect 58 0 89 0;
#X connect 59 0 40 0;
#X connect 59 0 54 0;
#X connect 59 0 46 0;
#X connect 60 0 61 1;
#X connect 61 0 63 0;
#X connect 62 0 61 0;
#X connect 65 0 66 0;
#X connect 65 0 76 0;
#X connect 65 0 98 0;
#X connect 67 0 68 1;
#X connect 68 0 72 0;
#X connect 69 0 68 0;
#X connect 71 0 70 0;
#X connect 71 0 76 0;
#X connect 71 0 99 0;
#X connect 73 0 0 0;
#X connect 76 0 77 0;
#X connect 77 0 79 1;
#X connect 78 0 79 0;
#X connect 79 0 80 0;
#X connect 79 0 81 0;
#X connect 83 0 82 0;
#X connect 83 0 96 0;
#X connect 83 3 85 0;
#X connect 84 0 86 0;
#X connect 85 0 84 0;
#X connect 87 0 84 1;
#X connect 89 0 88 0;
#X connect 89 0 97 0;
#X connect 89 3 91 0;
#X connect 90 0 93 0;
#X connect 91 0 90 0;
#X connect 92 0 90 1;
#X connect 94 0 60 0;
#X connect 95 0 67 0;
#X connect 96 0 87 0;
#X connect 97 0 92 0;
#X connect 98 0 94 0;
#X connect 98 3 62 0;
#X connect 98 3 78 0;
#X connect 99 0 95 0;
#X connect 99 3 69 0;
#X connect 99 3 78 0;
#X coords 0 801 1 800 85 60 0;
